# xmcd
#
# Track frame offsets: 
#        150
#        17745
#        34759
#        47509
#        71254
#        87786
#        106257
#        126549
#        146589
#        164860
#        181240
#
# Disc length: 2675 seconds
#
# Revision: 0
# Processed by: cddbd v1.5.2PL0 Copyright (c) Steve Scherf et al.
# Submitted via: ExactAudioCopy v1.3
#
DISCID=930a710b
DTITLE=Lisa Marie Presley - Storm and Grace
DYEAR=2012
DGENRE=Country
TTITLE0=Over Me
TTITLE1=You Ain't Seen Nothin' Yet
TTITLE2=Weary
TTITLE3=Close To The Edge
TTITLE4=So Long
TTITLE5=Un-break
TTITLE6=Soften The Blows
TTITLE7=Storm Of Nails
TTITLE8=How Do You Fly This Plane?
TTITLE9=Forgiving
TTITLE10=Storm and Grace
EXTD=
EXTT0=
EXTT1=
EXTT2=
EXTT3=
EXTT4=
EXTT5=
EXTT6=
EXTT7=
EXTT8=
EXTT9=
EXTT10=
PLAYORDER=
